<svg xmlns="http://www.w3.org/2000/svg" viewBox="0 0 184.98 59.89"><title>curvyArrow</title><g id="Layer_2" data-name="Layer 2"><g id="Layer_1-2" data-name="Layer 1"><path d="M2.13,17.17C3.7,14.77,5.31,12.41,7,10.11c2.19-2.93,5.06-8.56,9.19-6.27,2.56,1.43,5,5,7.08,7l7.78,7.73A1.12,1.12,0,0,0,32.66,17L21.34,5.77C19.58,4,17,.08,14.21,0S9.36,3.49,7.88,5.35C5.14,8.78,2.59,12.35.19,16c-.8,1.21,1.15,2.34,1.94,1.14Z"/><path d="M13.13,28C10.81,41.12,11.24,56.3,27.21,59.16c8,1.43,16.67.47,24.66-.51a215.2,215.2,0,0,0,25.19-4.82C112.19,45.14,147,29.93,183.91,34c1.44.16,1.43-2.09,0-2.25-31.86-3.51-62.45,7.34-92.63,15.93C75.66,52.13,59.77,56.11,43.5,57.2c-7.78.52-18.33,1.6-24.55-4.09-6.65-6.08-5-16.66-3.65-24.52.25-1.42-1.91-2-2.17-.6Z"/></g></g></svg>