<?xml version="1.0" encoding="utf-8"?>
<!-- Generator: Adobe Illustrator 22.0.1, SVG Export Plug-In . SVG Version: 6.00 Build 0)  -->
<svg version="1.1" id="Layer_1" xmlns="http://www.w3.org/2000/svg" xmlns:xlink="http://www.w3.org/1999/xlink" x="0px" y="0px"
	 viewBox="0 0 2854.3 196" style="enable-background:new 0 0 2854.3 196;" xml:space="preserve">
<style type="text/css">
	.st0{fill:#EE8888;}
</style>
<path id="This_submit_button_does_nothing_" class="st0" d="M98,0C43.9,0,0,43.9,0,98s43.9,98,98,98s98-43.9,98-98S152.1,0,98,0z
	 M98,165c-8.3,0-15-6.7-15-15s6.7-15,15-15s15,6.7,15,15S106.3,165,98,165z M113,109c0,0.3,0,0.7,0,1c-0.5,7.8-7,14-15,14
	s-14.5-6.2-15-14c0-0.3,0-0.7,0-1V46c0-8.3,6.7-15,15-15s15,6.7,15,15V109z M83,109v1h0C83,109.7,83,109.3,83,109z M113,110L113,110
	l0-1C113,109.3,113,109.7,113,110z M377.7,33.1L374,50.3h34.9L387.8,150h20.7l21-99.8h34.9l3.7-17.1H377.7z M519.9,61.4
	c-13.7,0-21.7,6.5-27.1,13.7L503,26.4h-19.9L457,150h19.9l10.4-48.8c2.9-13.4,10.6-22.9,23-22.9c11,0,13.6,6.4,11,18.9l-11,52.8H530
	l11.7-55.7C547,69.3,534.4,61.4,519.9,61.4z M571.5,63.1L553.1,150H573l18.4-86.9H571.5z M579.3,26.4l-4.3,20.5h19.9l4.3-20.5H579.3
	z M637.5,76.4c11.2,0,13.8,5.7,14.2,10.8h20.2c0.5-13.4-9.5-25.8-33.1-25.8c-22.4,0-34,11.9-34,26.8c0,10.5,6.1,17.4,25.9,23.8
	c11.4,3.8,16.3,6.9,16.3,13.3c0,6.6-4.4,11.2-14.3,11.2c-10.9,0-16.1-5.1-16.8-13.2h-20.2c-0.7,17.5,11.8,28.3,34.6,28.3
	c20.6,0,37.3-9.5,37.3-28.5c0-12.1-7.2-19.8-26.8-26.3c-11.2-3.8-16-5.9-16-11C624.8,79.2,630.7,76.4,637.5,76.4z M761.6,76.4
	c11.2,0,13.8,5.7,14.2,10.8h20.2c0.5-13.4-9.5-25.8-33.1-25.8c-22.4,0-34,11.9-34,26.8c0,10.5,6.1,17.4,25.9,23.8
	c11.4,3.8,16.3,6.9,16.3,13.3c0,6.6-4.4,11.2-14.3,11.2c-11,0-16.1-5.1-16.8-13.2h-20.2c-0.7,17.5,11.8,28.3,34.6,28.3
	c20.6,0,37.3-9.5,37.3-28.5c0-12.1-7.2-19.8-26.8-26.3c-11.2-3.8-16-5.9-16-11C748.8,79.2,754.8,76.4,761.6,76.4z M871.4,63.1
	l-9.1,42.3c-4.4,21.1-14,29.7-25.1,29.7c-11.2,0-12.3-7.3-10.2-17l11.7-55H819l-12.3,57.5c-4.4,20.8,5.2,31.1,21.2,31.1
	c12.2,0,21.7-5.1,28-14.7c-0.9,4.3-1.6,8.6-2.1,13h19.5c1.2-7,2.8-15.5,4.5-23.2l13.4-63.6H871.4z M979.3,70.5
	c-4.7-5.7-11.7-9-20.8-9c-12.4,0-20.9,5.4-26.4,12.5l10.1-47.5h-19.9l-21.3,101c-2.1,9.4-3.9,17.3-5,22.6h19.5
	c0.7-2,1.7-6.4,2.4-9.4c2.8,6.1,9.8,11.1,22.1,11.1c31.8,0,46.4-31,46.4-57.8C986.5,84.3,984,76.2,979.3,70.5z M959.6,121.5
	c-4.3,7.8-10.9,13.7-20.3,13.7c-14.1,0-18.5-10.1-14.9-28.1c1.8-9.1,4.9-16.3,9.2-21.3c4.3-5,9.9-7.7,16.6-7.7
	c10.5,0,15.7,6.1,15.7,17.9C965.8,103.9,963.9,113.7,959.6,121.5z M1103.3,61.4c-13.9,0-22.5,6.7-28.6,14.6
	c-1.6-9.2-7.7-14.6-19.9-14.6c-12.4,0-19.2,5.5-24.8,12.9c0.8-3.7,1.6-9.1,1.9-11.2h-19.5c-1.4,8-3.2,16.2-4.8,24.4L994.4,150h19.7
	l10-47.7c3.1-15,9.5-24,20.9-24c10.7,0,12.1,7.9,10,17.9l-11.4,53.8h19.6l10.4-49.1c2.8-13.7,8.7-22.7,20.2-22.7
	c11.9,0,12.2,9.2,10.4,17.8l-11.4,54h19.4l12-56.5C1129.2,69.8,1117.9,61.4,1103.3,61.4z M1153.9,63.1l-18.4,86.9h19.9l18.4-86.9
	H1153.9z M1161.6,26.4l-4.3,20.5h19.9l4.3-20.5H1161.6z M1217,78.6h17.1l3.5-15.5h-17.1l5.1-24h-19.8l-5.2,24h-13.4l-3.5,15.5h13.4
	l-10.1,48.3c-3.1,14.9,0.2,24,16.8,24c4.5,0,9.6,0,14.3-1.6l3.2-14.7c-2.6,0.4-5.2,0.6-7.8,0.6c-7.1,0-7.5-3.6-6.2-9.9L1217,78.6z
	 M1363.8,70.5c-4.7-5.7-11.7-9-20.7-9c-12.4,0-20.9,5.4-26.4,12.5l10.1-47.5h-19.9l-21.3,101c-2.1,9.4-3.9,17.3-5,22.6h19.5
	c0.7-2,1.7-6.4,2.4-9.4c2.8,6.1,9.8,11.1,22.1,11.1c31.8,0,46.4-31,46.4-57.8C1371,84.3,1368.5,76.2,1363.8,70.5z M1344.1,121.5
	c-4.3,7.8-10.9,13.7-20.3,13.7c-14.1,0-18.6-10.1-14.9-28.1c1.8-9.1,4.9-16.3,9.2-21.3c4.3-5,9.9-7.7,16.6-7.7
	c10.5,0,15.7,6.1,15.7,17.9C1350.3,103.9,1348.3,113.7,1344.1,121.5z M1449.1,63.1l-9.1,42.3c-4.4,21.1-14,29.7-25.1,29.7
	c-11.2,0-12.3-7.3-10.2-17l11.7-55h-19.8l-12.3,57.5c-4.4,20.8,5.2,31.1,21.2,31.1c12.2,0,21.7-5.1,28-14.7c-0.9,4.3-1.6,8.6-2.1,13
	h19.5c1.2-7,2.8-15.5,4.5-23.2l13.4-63.6H1449.1z M1513.3,78.6h17.1l3.5-15.5h-17.1l5.1-24H1502l-5.2,24h-13.4l-3.5,15.5h13.4
	l-10.1,48.3c-3.1,14.9,0.2,24,16.8,24c4.5,0,9.6,0,14.3-1.6l3.2-14.7c-2.6,0.4-5.2,0.6-7.8,0.6c-7.1,0-7.5-3.6-6.2-9.9L1513.3,78.6z
	 M1569,78.6h17.1l3.5-15.5h-17.1l5.1-24h-19.8l-5.2,24h-13.4l-3.5,15.5h13.4l-10.1,48.3c-3.1,14.9,0.2,24,16.8,24
	c4.5,0,9.6,0,14.3-1.6l3.2-14.7c-2.6,0.4-5.2,0.6-7.8,0.6c-7.1,0-7.5-3.6-6.2-9.9L1569,78.6z M1661.5,70.6
	c-6.2-6.1-14.9-9.1-25.2-9.1c-32.6,0-47.3,31.1-47.3,54.7c0,10.7,2.8,19.6,8.5,25.8c5.7,6.2,14.3,9.8,25.9,9.8
	c35.7,0,47.9-32.2,47.9-53.4C1671.3,85.9,1667.7,76.7,1661.5,70.6z M1644.8,122.2c-4.1,7.8-10.4,13.7-19.3,13.7
	c-10.1,0-15.8-6.9-15.8-19.8c0-7.8,2-17.6,6.1-25.3c4.1-7.8,10.4-13.6,19-13.6c10.8,0,16,6.9,16,19.3
	C1650.7,104.5,1648.8,114.4,1644.8,122.2z M1742.4,61.4c-15,0-22.9,7.8-27.2,13.9c0.6-2.3,1.8-9.7,2-12.2h-19.5
	c-1.2,7.3-2.8,14.6-4.3,22.1l-13.7,64.8h19.9l9.4-44.4c3.5-16.6,11.3-27.2,24.1-27.2c10.9,0,13.4,7.6,11,18.5l-11.2,53.1h19.8
	l11.2-53.1C1769.3,71.5,1759.3,61.4,1742.4,61.4z M1898.1,26.4l-9.7,45.6c-1.9-4.6-9.8-10.6-23-10.6c-30.2,0-45.9,29.8-45.9,56
	c0,10.4,2.5,18.9,7.3,24.9c4.8,6,12,9.3,21.3,9.3c12.5,0,20.8-4.9,26.4-13.1c-0.8,3.8-1.4,7.6-1.7,11.5h19.3
	c1.3-7.8,3.2-15.8,4.8-23.8l21.1-99.8H1898.1z M1882.6,103.4c-1.7,9.1-4.6,17-8.9,22.5c-4.3,5.6-10.2,8.9-17.8,8.9
	c-10.2,0-15.5-6.8-15.5-19.6c0-8.3,2.3-17.6,6.8-24.8c4.5-7.2,11.2-12.3,19.9-12.3C1881.2,78.2,1885.8,87.5,1882.6,103.4z
	 M1991.2,70.6c-6.2-6.1-14.9-9.1-25.2-9.1c-32.6,0-47.3,31.1-47.3,54.7c0,10.7,2.8,19.6,8.5,25.8c5.7,6.2,14.3,9.8,25.9,9.8
	c35.6,0,47.9-32.2,47.9-53.4C2001,85.9,1997.4,76.7,1991.2,70.6z M1974.5,122.2c-4.1,7.8-10.4,13.7-19.3,13.7
	c-10.1,0-15.8-6.9-15.8-19.8c0-7.8,1.9-17.6,6.1-25.3c4.1-7.8,10.4-13.6,19-13.6c10.8,0,16,6.9,16,19.3
	C1980.4,104.5,1978.6,114.4,1974.5,122.2z M2090.4,110.7c1.5-5.4,2.3-11,2.3-16.7c0-17.1-8.5-32.6-33.3-32.6
	c-33.7,0-46.5,31.5-46.5,55c0,10.4,2.7,19.2,8.3,25.4c5.6,6.2,14.1,9.9,25.5,9.9c24.8,0,35.7-14.4,40.9-27.5h-20.7
	c-3.3,6.1-7.9,11.8-18.3,11.8c-10.9,0-15.6-8.1-15.6-19.1c0-2.1,0.2-4.2,0.6-6.2H2090.4z M2058.6,76.7c10.9,0,15,6.6,15,15.6
	c0,1.6-0.1,3.2-0.4,4.7h-36.9C2039.7,84.2,2047.2,76.7,2058.6,76.7z M2141.7,76.4c11.2,0,13.8,5.7,14.2,10.8h20.2
	c0.5-13.4-9.5-25.8-33.1-25.8c-22.4,0-34,11.9-34,26.8c0,10.5,6.1,17.4,25.9,23.7c11.3,3.8,16.3,6.9,16.3,13.3
	c0,6.6-4.4,11.2-14.3,11.2c-10.9,0-16.1-5.2-16.8-13.2h-20.2c-0.7,17.5,11.8,28.3,34.6,28.3c20.6,0,37.3-9.5,37.3-28.5
	c0-12.1-7.2-19.9-26.8-26.3c-11.2-3.8-15.9-5.9-15.9-11C2129,79.2,2135,76.4,2141.7,76.4z M2287.9,61.4c-15,0-22.9,7.8-27.2,13.9
	c0.6-2.3,1.8-9.7,2-12.2h-19.5c-1.2,7.3-2.8,14.6-4.3,22.1l-13.7,64.8h19.9l9.4-44.4c3.5-16.6,11.3-27.2,24.1-27.2
	c10.9,0,13.4,7.6,11,18.5l-11.2,53.1h19.8l11.2-53.1C2314.9,71.5,2304.8,61.4,2287.9,61.4z M2397.2,70.6c-6.2-6.1-14.9-9.1-25.2-9.1
	c-32.6,0-47.3,31.1-47.3,54.7c0,10.7,2.8,19.6,8.5,25.8c5.7,6.2,14.3,9.8,25.9,9.8c35.6,0,47.9-32.2,47.9-53.4
	C2407,85.9,2403.4,76.7,2397.2,70.6z M2380.5,122.2c-4.1,7.8-10.4,13.7-19.3,13.7c-10.1,0-15.8-6.9-15.8-19.8
	c0-7.8,1.9-17.6,6.1-25.3c4.1-7.8,10.4-13.6,19-13.6c10.8,0,16,6.9,16,19.3C2386.4,104.5,2384.5,114.4,2380.5,122.2z M2453.2,78.6
	h17.1l3.5-15.5h-17.1l5.1-24h-19.8l-5.2,24h-13.4l-3.5,15.5h13.4l-10.1,48.3c-3.1,14.9,0.2,24,16.8,24c4.5,0,9.6,0,14.3-1.6
	l3.2-14.7c-2.6,0.4-5.2,0.6-7.8,0.6c-7.1,0-7.5-3.6-6.2-9.9L2453.2,78.6z M2532.7,61.4c-13.6,0-21.7,6.5-27.1,13.7l10.3-48.7H2496
	L2469.8,150h19.9l10.4-48.8c2.9-13.4,10.6-22.9,23-22.9c11,0,13.6,6.4,11,18.9l-11,52.8h19.8l11.7-55.7
	C2559.8,69.3,2547.2,61.4,2532.7,61.4z M2584.3,63.1l-18.4,86.9h19.9l18.4-86.9H2584.3z M2592.1,26.4l-4.3,20.5h19.9l4.3-20.5
	H2592.1z M2671.6,61.4c-15,0-22.9,7.8-27.2,13.9c0.6-2.3,1.8-9.7,2-12.2h-19.5c-1.2,7.3-2.8,14.6-4.3,22.1l-13.7,64.8h19.9l9.4-44.4
	c3.5-16.6,11.3-27.2,24.1-27.2c10.9,0,13.4,7.6,11,18.5l-11.1,53.1h19.8l11.2-53.1C2698.6,71.5,2688.6,61.4,2671.6,61.4z
	 M2779.1,63.1c-0.8,2-2.4,6.8-3.2,9.9c-2.1-5.7-9.6-11.6-23.5-11.6c-27.9,0-44,28.5-44,54.2c0,10.2,2.6,18.6,7.4,24.5
	c4.9,5.9,12,9.1,21.1,9.1c11.8,0,19.7-4.2,25.5-12.2l-1,4.3c-4.3,19.2-9.7,28.7-24.6,28.7c-11.7,0-15.8-5.8-16-12h-20.1
	c0.1,10.2,3.1,27.2,34.4,27.2c32.6,0,40.6-18.6,46.5-46.5l11.5-53.5c1.6-7.4,3.4-15.6,5-22.1H2779.1z M2770.2,104.3
	c-1.8,8.3-4.8,15.5-9,20.5c-4.2,5-9.7,8-16.4,8c-10.3,0-15.5-6.6-15.5-18.6c0-8.5,2.2-17.7,6.5-24.6c4.3-7,10.7-11.8,19.2-11.8
	C2771.3,77.7,2773.1,90.9,2770.2,104.3z M2833.1,33.1l-4.4,20.4l-9.2,55.2h16.3l14.1-55.1l4.4-20.5H2833.1z M2814.3,123.6l-5.6,26.4
	h19.8l5.6-26.4H2814.3z"/>
</svg>
