<?xml version="1.0" encoding="utf-8"?>
<!-- Generator: Adobe Illustrator 23.0.1, SVG Export Plug-In . SVG Version: 6.00 Build 0)  -->
<svg version="1.1" id="Layer_1" xmlns="http://www.w3.org/2000/svg" xmlns:xlink="http://www.w3.org/1999/xlink" x="0px" y="0px"
	 viewBox="0 0 72 90" style="enable-background:new 0 0 72 90;" xml:space="preserve">
<path d="M68,56c-1.3-1-1.4-1.9-1.2-3.3c1.6-10.4-0.3-20.3-5.3-29.6c-3.6-6.7-8.9-12.2-15-16.9c-5.6-4.3-12.2-5.9-19.3-4.9
	C13.4,3.3,4,16.2,7,29.1c0.1,0.3-0.1,0.9-0.3,1.2c-3.4,1.6-5.7,5-5.7,8.8C1,44.5,5.7,49,11.4,49H48c1.1,0,2.2-0.2,3.3-0.5
	c0.7,0.1,1.3,0.1,1.6,0.1c0.9-0.1,1.6,0.5,1.8,1.3c0.4,1.6,0.8,3.4,1.2,5.2c0.1,0.4-0.2,0.9-0.5,1.2c-2.1,2.2-3,4.7-2.5,7.6
	c0.6,3.6,3.8,6.6,7.8,7.1c3.9,0.5,7.7-1.5,9.5-5C71.8,62.6,71,58.3,68,56z M54.5,39.1c0,3.4-2.9,6.1-6.5,6.1H11.4
	c-3.6,0-6.5-2.8-6.5-6.1c0-3.4,2.9-6.1,6.5-6.1H48C51.5,32.9,54.5,35.7,54.5,39.1z M61.9,66.4c-2.3,0-4.3-1.8-4.4-4
	c0-2.2,1.9-4.1,4.3-4.2c2.3,0,4.3,1.8,4.4,4.1C66.2,64.5,64.3,66.4,61.9,66.4z"/>
</svg>
