<svg xmlns="http://www.w3.org/2000/svg" viewBox="0 0 70.01 70.06"><title>santahat</title><g id="Layer_2" data-name="Layer 2"><g id="Layer_1-2" data-name="Layer 1"><path d="M67,55a3,3,0,0,1-1.2-3.3,46.31,46.31,0,0,0-5.3-29.6c-3.6-6.7-8.9-12.2-15-16.9A25,25,0,0,0,26.2.29C12.4,2.29,3,15.19,6,28.09a1.8,1.8,0,0,1-.3,1.2A9.81,9.81,0,0,0,0,38.09C0,43.49,4.7,48,10.4,48H47a12.57,12.57,0,0,0,3.3-.5,11,11,0,0,0,1.6.1,1.66,1.66,0,0,1,1.8,1.3c.4,1.6.8,3.4,1.2,5.2a1.46,1.46,0,0,1-.5,1.2,8.44,8.44,0,0,0-2.5,7.6A9,9,0,0,0,59.7,70a9.35,9.35,0,0,0,9.5-5A8.28,8.28,0,0,0,67,55ZM53.5,38.09a6.28,6.28,0,0,1-6.5,6.1H10.4a6.35,6.35,0,0,1-6.5-6.1A6.28,6.28,0,0,1,10.4,32H47A6.28,6.28,0,0,1,53.5,38.09Zm7.4,27.3a4.11,4.11,0,1,1,4.3-4.1A4.23,4.23,0,0,1,60.9,65.39Z"/></g></g></svg>