<svg xmlns="http://www.w3.org/2000/svg" viewBox="0 0 77.71 69.56"><title>shootingstar</title><g id="Layer_1" data-name="Layer 1"><path d="M87.72,31.38,80.83,27a2.44,2.44,0,0,1-1.13-2l-.28-8.17A2.45,2.45,0,0,0,77,14.43,2.41,2.41,0,0,0,75.4,15l-6.32,5.19a2.5,2.5,0,0,1-1.56.55,2.59,2.59,0,0,1-.68-.09L59,18.37a2.42,2.42,0,0,0-1.8.17,1.09,1.09,0,0,0-.44.2L23.82,45.13a1,1,0,0,0,1.31,1.63l31-24.84L59,29.25a2.43,2.43,0,0,1-.25,2.28L54.15,38.3a2.43,2.43,0,0,0-.39,1.64L11.53,74a1,1,0,0,0-.15,1.47,1,1,0,0,0,.81.39,1.1,1.1,0,0,0,.66-.23l42-33.86a2.37,2.37,0,0,0,1.33.4h.15L64,41.69,40.79,60.43a1,1,0,0,0-.16,1.47,1,1,0,0,0,.81.39,1,1,0,0,0,.66-.23L66.4,42.42a1.7,1.7,0,0,1,.19.19l5,6.45a3.55,3.55,0,0,0,.33.34L30.4,82.12a1,1,0,0,0-.17,1.47,1,1,0,0,0,.82.4,1.07,1.07,0,0,0,.65-.23l43.1-34a.91.91,0,0,0,.27-.32,2.36,2.36,0,0,0,.86-1.32L78,40.25a2.44,2.44,0,0,1,1.54-1.69l7.69-2.79A2.46,2.46,0,0,0,87.72,31.38Zm-1.2,2.43-7.69,2.78A4.56,4.56,0,0,0,76,39.72l-2.06,7.92a.37.37,0,0,1-.37.28.32.32,0,0,1-.28-.15l-5-6.45a4.52,4.52,0,0,0-3.59-1.76h-.27l-8.19.49a.38.38,0,0,1-.3-.59l4.58-6.77a4.54,4.54,0,0,0,.47-4.21l-3-7.61a.35.35,0,0,1,0-.34.38.38,0,0,1,.3-.18l.12,0,7.86,2.27a4.46,4.46,0,0,0,1.26.18,4.52,4.52,0,0,0,2.88-1l6.32-5.18a.32.32,0,0,1,.23-.09.37.37,0,0,1,.38.36l.28,8.17a4.53,4.53,0,0,0,2.09,3.68l6.89,4.41a.36.36,0,0,1,.17.36A.34.34,0,0,1,86.52,33.81Z" transform="translate(-11.15 -14.43)"/></g></svg>